<svg width="1440" height="727" xmlns="http://www.w3.org/2000/svg"><g><path d="M-24,-106L-55,30L105,-91Z" fill="#f6fcfd" stroke="#f6fcfd"/><path d="M-24,-106L105,-91L655,-127Z" fill="#e5f6f2" stroke="#e5f6f2"/><path d="M105,-91L-55,30L28,123Z" fill="#f3fbfc" stroke="#f3fbfc"/><path d="M105,-91L28,123L185,20Z" fill="#eef9f9" stroke="#eef9f9"/><path d="M105,-91L185,20L227,-49Z" fill="#eaf7f6" stroke="#eaf7f6"/><path d="M105,-91L227,-49L398,-65Z" fill="#e5f6f3" stroke="#e5f6f3"/><path d="M105,-91L398,-65L655,-127Z" fill="#d6f0ea" stroke="#d6f0ea"/><path d="M227,-49L185,20L348,82Z" fill="#e3f5f2" stroke="#e3f5f2"/><path d="M227,-49L348,82L398,-65Z" fill="#ddf2ee" stroke="#ddf2ee"/><path d="M398,-65L348,82L494,82Z" fill="#d2efe8" stroke="#d2efe8"/><path d="M398,-65L494,82L581,-48Z" fill="#cbebe3" stroke="#cbebe3"/><path d="M398,-65L581,-48L655,-127Z" fill="#c5e9df" stroke="#c5e9df"/><path d="M581,-48L494,82L630,46Z" fill="#c1e8dd" stroke="#c1e8dd"/><path d="M581,-48L630,46L655,-127Z" fill="#bde5d9" stroke="#bde5d9"/><path d="M655,-127L630,46L813,23Z" fill="#b5e2d3" stroke="#b5e2d3"/><path d="M655,-127L813,23L871,-85Z" fill="#acddc9" stroke="#acddc9"/><path d="M655,-127L871,-85L1216,-88Z" fill="#9bd4b6" stroke="#9bd4b6"/><path d="M655,-127L1216,-88L1544,-84Z" fill="#85bd9c" stroke="#85bd9c"/><path d="M871,-85L813,23L960,-46Z" fill="#9fd6bb" stroke="#9fd6bb"/><path d="M871,-85L960,-46L1089,-71Z" fill="#95cfae" stroke="#95cfae"/><path d="M871,-85L1089,-71L1216,-88Z" fill="#8dc6a5" stroke="#8dc6a5"/><path d="M960,-46L813,23L967,69Z" fill="#9ad4b6" stroke="#9ad4b6"/><path d="M960,-46L967,69L1088,53Z" fill="#90ccaa" stroke="#90ccaa"/><path d="M960,-46L1088,53L1089,-71Z" fill="#8ec7a6" stroke="#8ec7a6"/><path d="M1089,-71L1088,53L1216,-88Z" fill="#86be9d" stroke="#86be9d"/><path d="M1216,-88L1088,53L1241,132Z" fill="#80b898" stroke="#80b898"/><path d="M1216,-88L1241,132L1404,54Z" fill="#7ead8d" stroke="#7ead8d"/><path d="M1216,-88L1404,54L1401,-59Z" fill="#80a787" stroke="#80a787"/><path d="M1216,-88L1401,-59L1544,-84Z" fill="#80a282" stroke="#80a282"/><path d="M1401,-59L1404,54L1526,75Z" fill="#7f9b80" stroke="#7f9b80"/><path d="M1401,-59L1526,75L1544,-84Z" fill="#809680" stroke="#809680"/><path d="M1544,-84L1526,75L1547,178Z" fill="#7d9180" stroke="#7d9180"/><path d="M1544,-84L1547,178L1621,514Z" fill="#658d7b" stroke="#658d7b"/><path d="M-55,30L-76,235L28,123Z" fill="#f1fdfe" stroke="#f1fdfe"/><path d="M28,123L-76,235L44,228Z" fill="#defcf9" stroke="#defcf9"/><path d="M28,123L44,228L180,182Z" fill="#dcfaf6" stroke="#dcfaf6"/><path d="M28,123L180,182L185,20Z" fill="#e8f8f8" stroke="#e8f8f8"/><path d="M185,20L180,182L348,82Z" fill="#e1f6f3" stroke="#e1f6f3"/><path d="M348,82L180,182L315,221Z" fill="#d1f4ee" stroke="#d1f4ee"/><path d="M348,82L315,221L466,268Z" fill="#c0f0e6" stroke="#c0f0e6"/><path d="M348,82L466,268L494,82Z" fill="#c5eee5" stroke="#c5eee5"/><path d="M494,82L466,268L667,241Z" fill="#ade9db" stroke="#ade9db"/><path d="M494,82L667,241L630,46Z" fill="#b9e6db" stroke="#b9e6db"/><path d="M630,46L667,241L813,23Z" fill="#b0e2d3" stroke="#b0e2d3"/><path d="M813,23L667,241L856,181Z" fill="#9fddc8" stroke="#9fddc8"/><path d="M813,23L856,181L967,69Z" fill="#9bd6bb" stroke="#9bd6bb"/><path d="M967,69L856,181L998,242Z" fill="#87d2b0" stroke="#87d2b0"/><path d="M967,69L998,242L1088,53Z" fill="#8acaa9" stroke="#8acaa9"/><path d="M1088,53L998,242L1086,256Z" fill="#77c6a1" stroke="#77c6a1"/><path d="M1088,53L1086,256L1237,181Z" fill="#75bd9a" stroke="#75bd9a"/><path d="M1088,53L1237,181L1241,132Z" fill="#7bb897" stroke="#7bb897"/><path d="M1241,132L1237,181L1426,254Z" fill="#69ab87" stroke="#69ab87"/><path d="M1241,132L1426,254L1404,54Z" fill="#73a584" stroke="#73a584"/><path d="M1404,54L1426,254L1547,178Z" fill="#6f9a7d" stroke="#6f9a7d"/><path d="M1404,54L1547,178L1526,75Z" fill="#7b9680" stroke="#7b9680"/><path d="M-76,235L-76,841L-65,487Z" fill="#8ed5af" stroke="#8ed5af"/><path d="M-76,235L-65,487L-43,418Z" fill="#b3efdc" stroke="#b3efdc"/><path d="M-76,235L-43,418L19,394Z" fill="#b9f2e4" stroke="#b9f2e4"/><path d="M-76,235L19,394L44,228Z" fill="#c7f7ee" stroke="#c7f7ee"/><path d="M44,228L19,394L244,376Z" fill="#b4f0e1" stroke="#b4f0e1"/><path d="M44,228L244,376L180,182Z" fill="#c2f6eb" stroke="#c2f6eb"/><path d="M180,182L244,376L315,221Z" fill="#bcf4e8" stroke="#bcf4e8"/><path d="M315,221L244,376L357,376Z" fill="#a6ebd8" stroke="#a6ebd8"/><path d="M315,221L357,376L466,268Z" fill="#a7ebda" stroke="#a7ebda"/><path d="M466,268L357,376L508,339Z" fill="#96e5cf" stroke="#96e5cf"/><path d="M466,268L508,339L667,241Z" fill="#97e5d0" stroke="#97e5d0"/><path d="M667,241L508,339L718,398Z" fill="#83dcc2" stroke="#83dcc2"/><path d="M667,241L718,398L856,181Z" fill="#83dcc1" stroke="#83dcc1"/><path d="M856,181L718,398L848,432Z" fill="#6cd1ad" stroke="#6cd1ad"/><path d="M856,181L848,432L928,412Z" fill="#62cca2" stroke="#62cca2"/><path d="M856,181L928,412L998,242Z" fill="#6ccfa6" stroke="#6ccfa6"/><path d="M998,242L928,412L1086,256Z" fill="#5ec698" stroke="#5ec698"/><path d="M1086,256L928,412L1155,434Z" fill="#49ba86" stroke="#49ba86"/><path d="M1086,256L1155,434L1291,398Z" fill="#3fad7b" stroke="#3fad7b"/><path d="M1086,256L1291,398L1237,181Z" fill="#52b287" stroke="#52b287"/><path d="M1237,181L1291,398L1426,254Z" fill="#52a67b" stroke="#52a67b"/><path d="M1426,254L1291,398L1480,364Z" fill="#439768" stroke="#439768"/><path d="M1426,254L1480,364L1547,178Z" fill="#559474" stroke="#559474"/><path d="M1547,178L1480,364L1542,422Z" fill="#478b6a" stroke="#478b6a"/><path d="M1547,178L1542,422L1621,514Z" fill="#3b8060" stroke="#3b8060"/><path d="M-43,418L-65,487L19,394Z" fill="#a1e5c9" stroke="#a1e5c9"/><path d="M19,394L-65,487L106,503Z" fill="#96e0bd" stroke="#96e0bd"/><path d="M19,394L106,503L244,376Z" fill="#99e3c5" stroke="#99e3c5"/><path d="M244,376L106,503L284,555Z" fill="#84d8b0" stroke="#84d8b0"/><path d="M244,376L284,555L357,376Z" fill="#88dcb9" stroke="#88dcb9"/><path d="M357,376L284,555L360,569Z" fill="#73cfa2" stroke="#73cfa2"/><path d="M357,376L360,569L550,515Z" fill="#6ccfa0" stroke="#6ccfa0"/><path d="M357,376L550,515L508,339Z" fill="#7dd9b7" stroke="#7dd9b7"/><path d="M508,339L550,515L718,398Z" fill="#6ed2ac" stroke="#6ed2ac"/><path d="M718,398L550,515L656,567Z" fill="#54c38f" stroke="#54c38f"/><path d="M718,398L656,567L857,495Z" fill="#4ac087" stroke="#4ac087"/><path d="M718,398L857,495L848,432Z" fill="#4fc28d" stroke="#4fc28d"/><path d="M848,432L857,495L928,412Z" fill="#45bd81" stroke="#45bd81"/><path d="M928,412L857,495L963,575Z" fill="#34b26c" stroke="#34b26c"/><path d="M928,412L963,575L1155,434Z" fill="#2ead66" stroke="#2ead66"/><path d="M1155,434L963,575L1159,501Z" fill="#209e56" stroke="#209e56"/><path d="M1155,434L1159,501L1290,507Z" fill="#1b9850" stroke="#1b9850"/><path d="M1155,434L1290,507L1291,398Z" fill="#259857" stroke="#259857"/><path d="M1291,398L1290,507L1480,364Z" fill="#2c9053" stroke="#2c9053"/><path d="M1480,364L1290,507L1431,582Z" fill="#1a8139" stroke="#1a8139"/><path d="M1480,364L1431,582L1542,422Z" fill="#227c43" stroke="#227c43"/><path d="M1542,422L1431,582L1621,514Z" fill="#166d33" stroke="#166d33"/><path d="M-65,487L-76,841L-31,713Z" fill="#7bab87" stroke="#7bab87"/><path d="M-65,487L-31,713L106,503Z" fill="#7fc7a1" stroke="#7fc7a1"/><path d="M106,503L-31,713L113,677Z" fill="#72b58f" stroke="#72b58f"/><path d="M106,503L113,677L210,621Z" fill="#6ebb93" stroke="#6ebb93"/><path d="M106,503L210,621L284,555Z" fill="#73c49b" stroke="#73c49b"/><path d="M284,555L210,621L360,569Z" fill="#67bc91" stroke="#67bc91"/><path d="M360,569L210,621L434,631Z" fill="#5cb387" stroke="#5cb387"/><path d="M360,569L434,631L550,515Z" fill="#58b889" stroke="#58b889"/><path d="M550,515L434,631L560,655Z" fill="#4aad7e" stroke="#4aad7e"/><path d="M550,515L560,655L656,567Z" fill="#47af7d" stroke="#47af7d"/><path d="M656,567L560,655L630,692Z" fill="#3e9f6c" stroke="#3e9f6c"/><path d="M656,567L630,692L766,712Z" fill="#379662" stroke="#379662"/><path d="M656,567L766,712L857,495Z" fill="#31a46a" stroke="#31a46a"/><path d="M857,495L766,712L961,634Z" fill="#229756" stroke="#229756"/><path d="M857,495L961,634L963,575Z" fill="#229e58" stroke="#229e58"/><path d="M963,575L961,634L1123,725Z" fill="#11823a" stroke="#11823a"/><path d="M963,575L1123,725L1159,501Z" fill="#0c863e" stroke="#0c863e"/><path d="M1159,501L1123,725L1218,703Z" fill="#03722a" stroke="#03722a"/><path d="M1159,501L1218,703L1290,507Z" fill="#087e37" stroke="#087e37"/><path d="M1290,507L1218,703L1431,582Z" fill="#026d26" stroke="#026d26"/><path d="M1431,582L1218,703L1434,694Z" fill="#005812" stroke="#005812"/><path d="M1431,582L1434,694L1583,640Z" fill="#005012" stroke="#005012"/><path d="M1431,582L1583,640L1621,514Z" fill="#065921" stroke="#065921"/><path d="M1621,514L1583,640L1552,860Z" fill="#003c0a" stroke="#003c0a"/><path d="M-31,713L-76,841L64,787Z" fill="#78907e" stroke="#78907e"/><path d="M-31,713L64,787L113,677Z" fill="#739d7c" stroke="#739d7c"/><path d="M113,677L64,787L261,837Z" fill="#6d9077" stroke="#6d9077"/><path d="M113,677L261,837L210,621Z" fill="#699d75" stroke="#699d75"/><path d="M210,621L261,837L434,631Z" fill="#609d73" stroke="#609d73"/><path d="M434,631L261,837L356,868Z" fill="#5b866d" stroke="#5b866d"/><path d="M434,631L356,868L512,865Z" fill="#528068" stroke="#528068"/><path d="M434,631L512,865L560,655Z" fill="#4a8f63" stroke="#4a8f63"/><path d="M560,655L512,865L630,692Z" fill="#43875e" stroke="#43875e"/><path d="M630,692L512,865L688,823Z" fill="#3f775b" stroke="#3f775b"/><path d="M630,692L688,823L766,712Z" fill="#368054" stroke="#368054"/><path d="M766,712L688,823L834,865Z" fill="#2e6d4c" stroke="#2e6d4c"/><path d="M766,712L834,865L961,634Z" fill="#23773f" stroke="#23773f"/><path d="M961,634L834,865L1032,806Z" fill="#186932" stroke="#186932"/><path d="M961,634L1032,806L1123,725Z" fill="#0f6c27" stroke="#0f6c27"/><path d="M1123,725L1032,806L1146,850Z" fill="#095221" stroke="#095221"/><path d="M1123,725L1146,850L1218,703Z" fill="#04541a" stroke="#04541a"/><path d="M1218,703L1146,850L1284,813Z" fill="#004615" stroke="#004615"/><path d="M1218,703L1284,813L1434,694Z" fill="#00490a" stroke="#00490a"/><path d="M1434,694L1284,813L1457,786Z" fill="#003a02" stroke="#003a02"/><path d="M1434,694L1457,786L1583,640Z" fill="#003e01" stroke="#003e01"/><path d="M1583,640L1457,786L1552,860Z" fill="#002b00" stroke="#002b00"/><path d="M-76,841L356,868L261,837Z" fill="#6a7a76" stroke="#6a7a76"/><path d="M-76,841L261,837L64,787Z" fill="#71837a" stroke="#71837a"/><path d="M356,868L834,865L512,865Z" fill="#43685e" stroke="#43685e"/><path d="M512,865L834,865L688,823Z" fill="#386555" stroke="#386555"/><path d="M834,865L1552,860L1146,850Z" fill="#023919" stroke="#023919"/><path d="M834,865L1146,850L1032,806Z" fill="#12502b" stroke="#12502b"/><path d="M1146,850L1552,860L1284,813Z" fill="#002d09" stroke="#002d09"/><path d="M1284,813L1552,860L1457,786Z" fill="#002700" stroke="#002700"/></g></svg>